PathFileType	4	(X/Y/Z)	..\data\2014019\dynamic\2014019_C5_03.trc
DataRate	CameraRate	NumFrames	NumMarkers	Units	OrigDataRate	OrigDataStartFrame	OrigNumFrames
100.000000	100.000000	4	52	mm	100.000000	17	142
Frame#	Time	L_IAS			L_IPS			R_IPS			R_IAS			L_FTC			L_FLE			L_FME			L_FAX			L_TTC			L_FAL			L_TAM			L_FCC			L_FM1			L_FM2			L_FM5			R_FTC			R_FLE			R_FME			R_FAX			R_TTC			R_FAL			R_TAM			R_FCC			R_FM1			R_FM2			R_FM5			CV7			TV10			SXS			SJN			L_SIA			L_SRS			L_SAA			L_SAE			L_HLE			L_HME			L_UOA			L_RSP			L_UHE			L_HM2			L_HM5			R_SIA			R_SRS			R_SAA			R_SAE			R_HLE			R_HME			R_UOA			R_RSP			R_UHE			R_HM2			R_HM5			
		X1	Y1	Z1	X2	Y2	Z2	X3	Y3	Z3	X4	Y4	Z4	X5	Y5	Z5	X6	Y6	Z6	X7	Y7	Z7	X8	Y8	Z8	X9	Y9	Z9	X10	Y10	Z10	X11	Y11	Z11	X12	Y12	Z12	X13	Y13	Z13	X14	Y14	Z14	X15	Y15	Z15	X16	Y16	Z16	X17	Y17	Z17	X18	Y18	Z18	X19	Y19	Z19	X20	Y20	Z20	X21	Y21	Z21	X22	Y22	Z22	X23	Y23	Z23	X24	Y24	Z24	X25	Y25	Z25	X26	Y26	Z26	X27	Y27	Z27	X28	Y28	Z28	X29	Y29	Z29	X30	Y30	Z30	X31	Y31	Z31	X32	Y32	Z32	X33	Y33	Z33	X34	Y34	Z34	X35	Y35	Z35	X36	Y36	Z36	X37	Y37	Z37	X38	Y38	Z38	X39	Y39	Z39	X40	Y40	Z40	X41	Y41	Z41	X42	Y42	Z42	X43	Y43	Z43	X44	Y44	Z44	X45	Y45	Z45	X46	Y46	Z46	X47	Y47	Z47	X48	Y48	Z48	X49	Y49	Z49	X50	Y50	Z50	X51	Y51	Z51	X52	Y52	Z52	

18	0.17	-992.460388183594	926.6031494140627	109.8824844360351	-1213.47900390625	977.4516601562502	150.1136474609374	-1229.686279296875	959.1365966796877	246.2543487548827	-1035.717651367188	897.803161621094	333.4456176757812	-1049.4501953125	878.2257080078127	6.301735877990596	-932.9981689453127	474.1000976562501	83.78459167480459	-970.0468750000002	458.508758544922	212.1726531982421	-947.6629028320315	414.0919799804689	77.05896759033193	-904.4758911132815	408.1678466796876	136.2733459472655	-968.278503417969	65.6165237426758	121.0325851440429	-955.3384399414065	88.88728332519533	213.728775024414	-1015.660400390625	23.9510669708252	160.704849243164	-831.8833618164065	22.09766387939453	230.1030578613281	-808.8840332031252	35.76542663574219	177.705337524414	-839.0954589843752	17.09394645690918	116.3849792480468	-1163.74853515625	822.016540527344	396.1042175292968	-1165.119140625	425.362030029297	364.6305541992186	-1140.485961914063	399.7394104003907	231.9945678710937	-1216.235107421875	399.480194091797	369.8781433105468	-1180.140014648438	340.6137390136719	321.5565490722655	-1507.888427734375	235.1958923339844	319.9207458496093	-1476.343017578125	213.5708770751954	236.6456298828124	-1552.941040039063	257.6292114257813	257.5865783691405	-1500.658081054688	77.58480834960939	226.6519317626952	-1499.500366210938	67.21274566650392	284.4007568359374	-1539.320556640625	93.21648406982423	327.4748535156249	-1190.201538085938	1451.5966796875	208.0429229736327	-1248.040893554688	1235.095581054688	205.9268646240234	-1012.130126953125	1141.958374023438	224.9244384765624	-1063.512451171875	1369.514282226563	217.8619842529296	-1247.769775390625	1266.89501953125	128.5560760498046	-1207.000854492188	1396.399658203125	95.91680145263659	-1167.638305664063	1392.086303710938	36.7625579833983	-1118.853271484375	1406.165771484375	27.58425712585436	-1237.017700195313	1097.654907226563	-18.43682098388688	-1257.734375	1100.766723632813	47.92522811889634	-1264.213012695313	1084.3525390625	21.40752410888657	-1249.864379882813	843.3626098632815	-38.43675613403337	-1303.724975585938	878.430358886719	-72.87448883056658	-1279.456909179688	753.7552490234376	-50.12503814697283	-1360.326416015625	810.0491943359377	-70.69947814941425	-1266.190185546875	1266.468872070313	277.1159057617186	-1234.668823242188	1400.609619140625	305.9421081542968	-1199.453491210938	1405.176147460938	371.3122253417968	-1162.767578125	1423.690551757813	380.1840209960936	-1198.29150390625	1099.500610351563	466.8376464843749	-1224.236083984375	1085.372314453125	391.6818542480468	-1225.33740234375	1058.271362304688	433.4129943847656	-991.7188110351565	949.1025390625002	443.9554748535156	-1042.318481445313	911.894958496094	476.9950561523438	-920.0234985351565	892.873718261719	462.8128967285156	-1003.823181152344	836.1674804687502	461.1835632324219	
19	0.18	-975.7193603515627	930.4356689453127	109.0115356445312	-1196.689208984375	980.800964355469	150.0084381103514	-1212.934936523438	961.4613037109377	245.7874298095702	-1019.25146484375	901.276794433594	333.2780761718749	-1034.262084960938	880.9459228515627	5.853146553039425	-925.917175292969	473.931854248047	83.46351623535146	-964.2662353515627	458.9746398925782	211.5791015624999	-941.831970214844	414.1768188476564	76.66477203369131	-898.934997558594	407.3739318847657	136.0394439697265	-968.0340576171877	65.99571990966798	121.1157684326171	-955.5692138671877	89.19459533691408	213.8533630371093	-1015.515563964844	24.20870399475098	160.6226348876952	-832.2972412109377	22.47214698791504	230.3395080566406	-808.9787597656252	36.44873428344727	178.0963897705078	-839.1536865234377	18.11635398864746	116.2271270751952	-1145.331420898438	822.5648193359377	395.2440795898438	-1131.266967773438	426.0279846191407	364.3142089843749	-1107.94384765625	401.2809143066407	230.932144165039	-1181.531372070313	399.7879638671876	369.8041076660155	-1145.885009765625	341.8627319335938	320.5176391601562	-1474.17822265625	237.9838562011719	319.527130126953	-1442.892211914063	216.2562255859376	236.2527008056639	-1520.18603515625	259.2143249511719	257.1589965820311	-1463.030639648438	79.80784606933595	228.7767944335936	-1462.231079101563	70.02581024169923	286.682403564453	-1502.651489257813	96.46242523193362	328.9386901855468	-1172.465087890625	1454.941162109375	207.8687591552734	-1230.600341796875	1238.368286132813	205.4276123046874	-995.5227661132815	1144.402954101563	226.1305694580078	-1046.121948242188	1372.421508789063	218.2965545654296	-1230.375244140625	1270.482666015625	127.9545516967772	-1189.091064453125	1399.536499023438	95.47055816650378	-1149.495361328125	1394.70654296875	36.44752120971666	-1100.495727539063	1408.863891601563	27.54826736450183	-1210.697631835938	1097.182006835938	-21.07969856262222	-1233.15869140625	1099.561767578125	44.60723495483384	-1238.701904296875	1083.058227539063	18.04844856262192	-1214.895141601563	842.4795532226565	-40.58719635009781	-1268.8037109375	875.8057250976565	-76.62301635742205	-1241.008178710938	752.1235961914064	-53.42428588867204	-1322.91650390625	805.670593261719	-76.51520538330095	-1249.203125	1270.117553710938	276.804962158203	-1217.34765625	1404.265625	305.7557373046874	-1182.313842773438	1408.831420898438	371.2226562499999	-1145.638549804688	1427.045166015625	380.1789855957031	-1183.809326171875	1102.56494140625	465.3770141601562	-1209.483520507813	1089.656127929688	389.9378967285156	-1211.812255859375	1062.5009765625	431.4041442871093	-983.3433837890627	943.392272949219	444.4875183105469	-1036.038940429688	908.6101074218752	476.8427124023438	-914.9013061523441	883.6400146484377	464.7454833984375	-1001.3046875	831.381042480469	461.7334594726562	
20	0.19	-959.2517089843752	934.1267089843752	108.2840194702148	-1179.999389648438	984.1857910156252	149.6915435791014	-1196.314086914063	964.2242431640627	245.0252990722655	-1003.166931152344	905.2468261718752	333.4280700683593	-1019.373168945313	883.2976074218752	5.57823276519763	-919.8975830078127	473.6429748535157	83.05353546142568	-959.7636718750002	459.1912231445314	210.8460540771484	-937.031677246094	414.1502380371095	76.16255187988271	-894.372253417969	406.5125732421876	135.6961364746093	-967.8604125976565	66.27185058593751	121.1108245849609	-955.7844238281252	89.54595184326173	213.8441619873046	-1015.38720703125	24.35383987426759	160.4945373535155	-832.7171020507815	23.18581581115723	230.4898681640624	-809.158142089844	37.36048889160157	178.3562622070312	-839.1997070312502	19.20212173461914	116.1519775390624	-1127.240966796875	823.8243408203127	394.4852905273438	-1097.394165039063	427.5275268554689	363.7210998535156	-1075.25439453125	403.7905883789064	229.5946960449218	-1146.802368164063	400.7749328613282	369.2868652343749	-1111.226806640625	343.8239135742188	319.1588134765624	-1439.305541992188	239.2452392578126	318.8329162597655	-1408.131103515625	217.7312316894532	235.5134124755858	-1486.55859375	258.6406250000001	256.4640197753905	-1422.476928710938	80.98067474365236	230.5406036376952	-1421.74853515625	72.10147857666017	288.5517272949218	-1462.969116210938	98.220329284668	330.1842346191405	-1154.953002929688	1458.349853515625	207.802749633789	-1213.390625	1241.736450195313	204.9195709228515	-979.1995239257815	1147.086669921875	227.3285064697265	-1028.969848632813	1375.440673828125	218.8027801513671	-1213.236328125	1274.25390625	127.3801803588866	-1171.44677734375	1402.847900390625	95.18211364746081	-1131.64013671875	1397.553100585938	36.28240966796861	-1082.458618164063	1411.788818359375	27.62815284728991	-1184.08447265625	1096.967651367188	-23.5957584381105	-1208.21875	1098.503173828125	41.4212493896483	-1212.808471679688	1081.911743164063	14.80499362945542	-1179.001831054688	842.1052246093752	-42.43378067016616	-1232.913818359375	873.6033935546877	-80.07580566406267	-1201.376953125	751.1145629882814	-56.53452301025407	-1284.20556640625	801.7332153320315	-82.24501800537126	-1232.361572265625	1273.80712890625	276.4950866699218	-1200.2275390625	1407.947509765625	305.6267700195311	-1165.35546875	1412.530883789063	371.1698303222655	-1128.7275390625	1430.478393554688	380.2163391113281	-1169.255249023438	1105.813720703125	464.1575317382812	-1194.8955078125	1094.135864257813	388.5951538085937	-1198.316162109375	1066.973876953125	429.7637023925781	-975.6553955078127	937.7280883789065	444.97998046875	-1030.317993164063	905.6312255859377	476.8207397460938	-910.7697143554691	874.3466796875002	466.3260498046875	-999.7229003906252	826.9729003906252	462.2750244140625	
21	0.2	-943.0080566406252	937.5766601562502	107.7349243164062	-1163.364868164063	987.544372558594	149.2110595703124	-1179.77587890625	967.3205566406252	244.0750579833984	-987.3425903320315	909.5604248046877	333.8316345214843	-1004.626770019531	885.3103027343752	5.485881805419799	-914.7681884765627	473.2675781250001	82.54990386962881	-956.3037719726565	459.2652587890626	209.9915466308593	-933.0728759765627	414.041717529297	75.56345367431631	-890.6212158203127	405.6201782226564	135.2502441406249	-967.7283935546877	66.44042205810548	121.0184402465819	-955.9207153320315	89.91649627685548	213.7068786621093	-1015.289001464844	24.42346382141114	160.3172760009765	-833.1052856445315	24.03240585327149	230.5584564208984	-809.3590087890627	38.29261779785157	178.4974670410156	-839.2193603515627	20.17861557006836	116.1354751586913	-1109.388671875	825.6924438476565	393.8921813964844	-1063.67919921875	429.8228149414064	362.8705444335937	-1042.490844726563	407.1910400390626	228.052505493164	-1112.247314453125	402.434539794922	368.3543701171874	-1076.327880859375	346.4545593261719	317.5541381835937	-1403.422485351563	238.8849487304688	317.9224548339843	-1372.209350585938	217.8750305175782	234.5136566162108	-1452.120849609375	255.8849029541016	255.5899963378905	-1379.43408203125	81.08082580566408	231.9493713378905	-1378.513916015625	73.35102844238283	290.0181884765624	-1420.680419921875	98.46057891845706	331.2273559570311	-1137.650390625	1461.73876953125	207.8063659667968	-1196.382446289063	1245.1171875	204.3866882324218	-963.1005859375002	1149.991943359375	228.4709320068359	-1012.033203125	1378.516357421875	219.3445587158203	-1196.2919921875	1278.11083984375	126.7797622680663	-1154.03173828125	1406.246704101563	95.00375366210925	-1114.02392578125	1400.554443359375	36.21672058105456	-1064.69970703125	1414.873779296875	27.79395866394031	-1157.246459960938	1097.023071289063	-25.96813964843765	-1182.93408203125	1097.630615234375	38.41223526000963	-1186.561889648438	1080.932861328125	11.71379566192613	-1142.2861328125	842.3233032226565	-43.96654129028335	-1196.181518554688	871.9046020507815	-83.17920684814469	-1160.657836914063	750.8435058593751	-59.38928222656266	-1244.308349609375	798.328063964844	-87.73416900634783	-1215.635375976563	1277.441772460938	276.1347351074218	-1183.291015625	1411.562255859375	305.5038146972655	-1148.56982421875	1416.184326171875	371.1112670898437	-1112.024536132813	1433.902099609375	380.2623596191406	-1154.661254882813	1109.176025390625	463.1724243164062	-1180.480346679688	1098.71875	387.6461181640624	-1184.85302734375	1071.6064453125	428.4980163574218	-968.6268310546877	932.1879882812502	445.4385070800781	-1025.07373046875	903.010437011719	476.9765319824219	-907.5588989257816	865.1279907226565	467.4981689453125	-998.9439697265627	823.029968261719	462.8486938476562	
